<?xml version="1.0"?>
<svg xmlns="http://www.w3.org/2000/svg" xmlns:xlink="http://www.w3.org/1999/xlink" xmlns:svgjs="http://svgjs.com/svgjs" version="1.1" width="512" height="512" x="0" y="0" viewBox="0 0 512 512" style="enable-background:new 0 0 512 512" xml:space="preserve" class=""><g>
<path xmlns="http://www.w3.org/2000/svg" d="M394.667,73.532H117.333C52.561,73.603,0.071,126.093,0,190.865v21.333  c0,5.891,4.776,10.667,10.667,10.667h490.667c5.891,0,10.667-4.776,10.667-10.667v-21.333  C511.929,126.093,459.439,73.603,394.667,73.532z" fill="#00c853" data-original="#455a64" class=""/>
<path xmlns="http://www.w3.org/2000/svg" d="M436.203,143.42L391.04,53.095C372.599,16.21,327.75,1.259,290.865,19.699  c-0.669,0.334-1.332,0.679-1.991,1.033L69.611,138.791c-5.184,2.798-7.118,9.269-4.32,14.453c1.86,3.447,5.46,5.596,9.376,5.6h352  c5.891,0,10.667-4.776,10.666-10.667c0-1.659-0.387-3.295-1.13-4.778V143.42z" fill="#BBF7D0" data-original="#4caf50" class=""/>
<path xmlns="http://www.w3.org/2000/svg" d="M74.667,137.532h362.667c41.237,0,74.667,33.429,74.667,74.667v213.333  c0,41.237-33.429,74.667-74.667,74.667H74.667C33.429,500.199,0,466.769,0,425.532V212.199C0,170.961,33.429,137.532,74.667,137.532  z" fill="#00e676" data-original="#607d8b" class=""/>
<path xmlns="http://www.w3.org/2000/svg" d="M501.333,244.199H416c-41.237,0.022-74.649,33.468-74.628,74.706  c0.022,41.207,33.421,74.606,74.628,74.628h85.333c5.891,0,10.667-4.776,10.667-10.667v-128  C512,248.974,507.224,244.199,501.333,244.199z" fill="#00c853" data-original="#455a64" class=""/>
<circle xmlns="http://www.w3.org/2000/svg" cx="416" cy="318.865" r="32" fill="#f3e4ff" data-original="#90a4ae" class=""/>
<g xmlns="http://www.w3.org/2000/svg">
</g>
<g xmlns="http://www.w3.org/2000/svg">
</g>
<g xmlns="http://www.w3.org/2000/svg">
</g>
<g xmlns="http://www.w3.org/2000/svg">
</g>
<g xmlns="http://www.w3.org/2000/svg">
</g>
<g xmlns="http://www.w3.org/2000/svg">
</g>
<g xmlns="http://www.w3.org/2000/svg">
</g>
<g xmlns="http://www.w3.org/2000/svg">
</g>
<g xmlns="http://www.w3.org/2000/svg">
</g>
<g xmlns="http://www.w3.org/2000/svg">
</g>
<g xmlns="http://www.w3.org/2000/svg">
</g>
<g xmlns="http://www.w3.org/2000/svg">
</g>
<g xmlns="http://www.w3.org/2000/svg">
</g>
<g xmlns="http://www.w3.org/2000/svg">
</g>
<g xmlns="http://www.w3.org/2000/svg">
</g>
</g></svg>
